<svg width="36" height="36" viewBox="0 0 36 36" fill="none" xmlns="http://www.w3.org/2000/svg">
<path fill-rule="evenodd" clip-rule="evenodd" d="M17.9951 1C8.62327 1 1 8.6254 1 17.9998C1 21.7176 2.19895 25.1655 4.23709 27.9641L2.11888 34.2802L8.65315 32.1918C11.3407 33.9708 14.5479 35 18.0049 35C27.3767 35 35 27.3743 35 18.0002C35 8.6257 27.3767 1.00028 18.0049 1.00028L17.9951 1ZM13.2491 9.63517C12.9195 8.84569 12.6696 8.8158 12.1703 8.79549C12.0002 8.78562 11.8107 8.77576 11.6007 8.77576C10.951 8.77576 10.2717 8.96558 9.86199 9.38528C9.36261 9.89496 8.12358 11.0841 8.12358 13.5228C8.12358 15.9614 9.90203 18.32 10.1417 18.65C10.3915 18.9794 13.6089 24.0565 18.6044 26.1256C22.5109 27.7446 23.6701 27.5946 24.5592 27.4048C25.858 27.125 27.4867 26.1651 27.8964 25.0062C28.3061 23.8466 28.3061 22.8572 28.186 22.6473C28.0662 22.4375 27.7362 22.3179 27.2369 22.0677C26.7375 21.8178 24.3094 20.6185 23.8498 20.4585C23.4 20.2887 22.9706 20.3488 22.6311 20.8286C22.1514 21.4982 21.6819 22.178 21.3021 22.5875C21.0024 22.9074 20.5126 22.9474 20.1031 22.7773C19.5536 22.5477 18.0151 22.0076 16.1165 20.3186C14.6477 19.0096 13.6487 17.3807 13.3591 16.8911C13.0692 16.3916 13.3292 16.1013 13.5587 15.8317C13.8085 15.5217 14.0482 15.302 14.2981 15.012C14.5479 14.7223 14.6878 14.5723 14.8476 14.2324C15.0177 13.9027 14.8975 13.5628 14.7777 13.3129C14.6579 13.063 13.6588 10.6243 13.2491 9.63517Z" fill="#67C15E" stroke="black" stroke-width="0.4"/>
</svg>
