<svg width="17" height="15" viewBox="0 0 17 15" fill="none" xmlns="http://www.w3.org/2000/svg">
<path d="M11.8586 9.62314L11.4284 10.0227C11.4284 10.0227 10.406 10.9725 7.61514 8.3799C4.82433 5.78737 5.84676 4.83757 5.84676 4.83757L6.11763 4.58593C6.78498 3.96604 6.84788 2.97081 6.26563 2.24425L5.07474 0.758011C4.35415 -0.14125 2.96174 -0.260042 2.13581 0.507201L0.653412 1.88428C0.243882 2.26472 -0.0305544 2.75788 0.00272774 3.30496C0.0878693 4.70456 0.765668 7.71593 4.54783 11.2294C8.55864 14.9552 12.322 15.1033 13.8609 14.9692C14.3477 14.9269 14.771 14.6953 15.1121 14.3783L16.4538 13.1321C17.3594 12.2908 17.1041 10.8485 15.9453 10.26L14.141 9.34361C13.3801 8.95723 12.4532 9.0707 11.8586 9.62314Z" fill="#E33636"/>
</svg>
