<svg width="50" height="48" viewBox="0 0 50 48" fill="none" xmlns="http://www.w3.org/2000/svg">
<path d="M47.2961 34.102L43.939 27.4008L49.7035 22.3177L43.2008 18.0777L45.4645 10.9901L37.5577 10.3478L35.715 3.15515L28.5214 6.28169L23.067 0.911701L18.516 6.97021L10.9086 4.86104L10.218 12.2272L2.4984 13.944L5.8543 20.6448L0.0908019 25.7288L6.59351 29.9689L4.32967 37.0565L12.2353 37.6982L14.0792 44.8915L21.2716 41.7643L26.7273 47.1349L31.2783 41.0765L38.8856 43.1856L39.5752 35.8185L47.2961 34.102ZM18.6837 27.023L17.3056 26.6877C17.2127 26.6644 17.1637 26.6183 17.1388 26.5312L15.6417 21.2458L15.5836 21.2318L14.2914 25.8374C14.2731 25.9022 14.2142 25.9337 14.145 25.9175L12.8361 25.5986C12.7673 25.5818 12.7334 25.5268 12.7517 25.4621L14.7499 18.3441C14.7673 18.2782 14.826 18.2473 14.8948 18.2641L16.2849 18.6025C16.366 18.6221 16.4256 18.6715 16.4505 18.7586L17.9342 24.052L17.9911 24.0656L19.287 19.4495C19.3057 19.3843 19.3643 19.3532 19.4335 19.3695L20.7424 19.6884C20.8112 19.7052 20.8457 19.759 20.8271 19.8244L18.8289 26.9422C18.8115 27.0082 18.7526 27.0398 18.6837 27.023ZM25.47 28.6762L20.422 27.4467C20.352 27.4292 20.3191 27.3755 20.3361 27.3102L22.3342 20.1923C22.3529 20.1269 22.4107 20.0948 22.4807 20.1122L27.5286 21.3418C27.5975 21.3587 27.6318 21.413 27.613 21.4783L27.289 22.6316C27.2719 22.6968 27.2129 22.7285 27.1441 22.7116L23.7508 21.885C23.705 21.8737 23.6756 21.8894 23.6636 21.9329L23.2543 23.3887C23.2427 23.4317 23.2603 23.4594 23.306 23.4709L26.1319 24.1591C26.2008 24.1759 26.2347 24.2308 26.2166 24.295L25.8962 25.4386C25.8778 25.5033 25.8191 25.5343 25.7503 25.5176L22.9244 24.8292C22.8783 24.8184 22.8488 24.8342 22.8373 24.8772L22.4108 26.3983C22.3976 26.4412 22.4155 26.4683 22.4616 26.4792L25.8548 27.3059C25.9236 27.3227 25.9576 27.3777 25.9392 27.4424L25.6148 28.5963C25.5979 28.6615 25.5389 28.693 25.47 28.6762ZM33.9765 30.6329C33.9458 30.6949 33.8758 30.7245 33.795 30.7044L32.6374 30.4223C32.5562 30.4028 32.5223 30.3478 32.5175 30.2777L32.432 25.3831L32.409 25.3777L29.751 29.6041C29.7099 29.6628 29.6506 29.695 29.5697 29.6748L28.4118 29.3934C28.343 29.3765 28.3091 29.3216 28.3031 29.2508L28.2643 21.6366C28.2706 21.5686 28.3053 21.531 28.3865 21.5505L29.8802 21.9151C29.9614 21.9346 29.9957 21.9884 29.988 22.0564L29.8307 26.9382L29.8537 26.9437L32.4895 22.6661C32.5312 22.6063 32.5898 22.5753 32.6699 22.5942L33.6775 22.8399C33.7463 22.8567 33.7808 22.9105 33.7862 22.9824L33.8819 27.9248L33.9062 27.9307L36.2864 23.5915C36.3197 23.5186 36.3752 23.4967 36.456 23.5168L37.9377 23.8781C38.0189 23.8976 38.029 23.9455 37.9996 24.008L33.9765 30.6329Z" fill="#FFCF40"/>
</svg>
