<svg width="23" height="23" viewBox="0 0 23 23" fill="none" xmlns="http://www.w3.org/2000/svg">
<path d="M18.985 0.625H3.865C2.0756 0.625 0.625 2.0756 0.625 3.865V18.985C0.625 20.7744 2.0756 22.225 3.865 22.225H18.985C20.7744 22.225 22.225 20.7744 22.225 18.985V3.865C22.225 2.0756 20.7744 0.625 18.985 0.625Z" fill="#1877F2"/>
<path d="M15.6269 14.5469L16.1078 11.425H13.1125V9.4C13.1125 8.54781 13.5301 7.7125 14.8717 7.7125H16.2344V5.05469C16.2344 5.05469 14.9983 4.84375 13.817 4.84375C11.3491 4.84375 9.73749 6.33719 9.73749 9.04563V11.425H6.9953V14.5469H9.73749V22.225H13.1125V14.5469H15.6269Z" fill="white"/>
</svg>
