<svg width="24" height="24" viewBox="0 0 24 24" fill="none" xmlns="http://www.w3.org/2000/svg">
<path d="M18.1821 0.274902H5.06785C2.35179 0.274902 0.149994 2.4767 0.149994 5.19276V18.307C0.149994 21.0231 2.35179 23.2249 5.06785 23.2249H18.1821C20.8982 23.2249 23.1 21.0231 23.1 18.307V5.19276C23.1 2.4767 20.8982 0.274902 18.1821 0.274902Z" fill="url(#paint0_radial_73_13)"/>
<path d="M18.1821 0.274902H5.06785C2.35179 0.274902 0.149994 2.4767 0.149994 5.19276V18.307C0.149994 21.0231 2.35179 23.2249 5.06785 23.2249H18.1821C20.8982 23.2249 23.1 21.0231 23.1 18.307V5.19276C23.1 2.4767 20.8982 0.274902 18.1821 0.274902Z" fill="url(#paint1_radial_73_13)"/>
<path d="M18.1821 0.274902H5.06785C2.35179 0.274902 0.149994 2.4767 0.149994 5.19276V18.307C0.149994 21.0231 2.35179 23.2249 5.06785 23.2249H18.1821C20.8982 23.2249 23.1 21.0231 23.1 18.307V5.19276C23.1 2.4767 20.8982 0.274902 18.1821 0.274902Z" fill="url(#paint2_radial_73_13)"/>
<path d="M17.3625 7.24216C17.3625 7.92115 16.812 8.47162 16.133 8.47162C15.454 8.47162 14.9036 7.92115 14.9036 7.24216C14.9036 6.56314 15.454 6.0127 16.133 6.0127C16.812 6.0127 17.3625 6.56314 17.3625 7.24216Z" fill="white"/>
<path fill-rule="evenodd" clip-rule="evenodd" d="M11.625 15.8483C13.8884 15.8483 15.7232 14.0134 15.7232 11.7501C15.7232 9.48671 13.8884 7.65186 11.625 7.65186C9.36165 7.65186 7.52679 9.48671 7.52679 11.7501C7.52679 14.0134 9.36165 15.8483 11.625 15.8483ZM11.625 14.209C12.9831 14.209 14.0839 13.1081 14.0839 11.7501C14.0839 10.392 12.9831 9.29114 11.625 9.29114C10.2669 9.29114 9.16608 10.392 9.16608 11.7501C9.16608 13.1081 10.2669 14.209 11.625 14.209Z" fill="white"/>
<path fill-rule="evenodd" clip-rule="evenodd" d="M3.42856 11.4223C3.42856 8.66804 3.42856 7.29087 3.96457 6.23891C4.43606 5.31355 5.1884 4.56122 6.11376 4.08972C7.16572 3.55371 8.54288 3.55371 11.2971 3.55371H11.9528C14.7071 3.55371 16.0843 3.55371 17.1362 4.08972C18.0616 4.56122 18.8139 5.31355 19.2854 6.23891C19.8214 7.29087 19.8214 8.66804 19.8214 11.4223V12.078C19.8214 14.8322 19.8214 16.2094 19.2854 17.2613C18.8139 18.1867 18.0616 18.9391 17.1362 19.4105C16.0843 19.9466 14.7071 19.9466 11.9528 19.9466H11.2971C8.54288 19.9466 7.16572 19.9466 6.11376 19.4105C5.1884 18.9391 4.43606 18.1867 3.96457 17.2613C3.42856 16.2094 3.42856 14.8322 3.42856 12.078V11.4223ZM11.2971 5.193H11.9528C13.3571 5.193 14.3115 5.19428 15.0494 5.25455C15.7681 5.31327 16.1356 5.4197 16.392 5.55034C17.0089 5.86467 17.5104 6.36623 17.8248 6.9831C17.9554 7.23948 18.0619 7.60701 18.1206 8.32575C18.1808 9.0636 18.1821 10.0181 18.1821 11.4223V12.078C18.1821 13.4822 18.1808 14.4367 18.1206 15.1745C18.0619 15.8933 17.9554 16.2608 17.8248 16.5172C17.5104 17.134 17.0089 17.6356 16.392 17.9499C16.1356 18.0806 15.7681 18.187 15.0494 18.2457C14.3115 18.306 13.3571 18.3073 11.9528 18.3073H11.2971C9.89292 18.3073 8.93844 18.306 8.2006 18.2457C7.48186 18.187 7.11433 18.0806 6.85794 17.9499C6.24107 17.6356 5.73952 17.134 5.42518 16.5172C5.29455 16.2608 5.18812 15.8933 5.1294 15.1745C5.06912 14.4367 5.06784 13.4822 5.06784 12.078V11.4223C5.06784 10.0181 5.06912 9.0636 5.1294 8.32575C5.18812 7.60701 5.29455 7.23948 5.42518 6.9831C5.73952 6.36623 6.24107 5.86467 6.85794 5.55034C7.11433 5.4197 7.48186 5.31327 8.2006 5.25455C8.93844 5.19428 9.89292 5.193 11.2971 5.193Z" fill="white"/>
<defs>
<radialGradient id="paint0_radial_73_13" cx="0" cy="0" r="1" gradientUnits="userSpaceOnUse" gradientTransform="translate(8.34642 17.4874) rotate(-55.3758) scale(20.917)">
<stop stop-color="#B13589"/>
<stop offset="0.79309" stop-color="#C62F94"/>
<stop offset="1" stop-color="#8A3AC8"/>
</radialGradient>
<radialGradient id="paint1_radial_73_13" cx="0" cy="0" r="1" gradientUnits="userSpaceOnUse" gradientTransform="translate(7.52678 24.0445) rotate(-65.1363) scale(18.5192)">
<stop stop-color="#E0E8B7"/>
<stop offset="0.444662" stop-color="#FB8A2E"/>
<stop offset="0.71474" stop-color="#E2425C"/>
<stop offset="1" stop-color="#E2425C" stop-opacity="0"/>
</radialGradient>
<radialGradient id="paint2_radial_73_13" cx="0" cy="0" r="1" gradientUnits="userSpaceOnUse" gradientTransform="translate(-1.07947 1.09455) rotate(-8.1301) scale(31.8766 6.81808)">
<stop offset="0.156701" stop-color="#406ADC"/>
<stop offset="0.467799" stop-color="#6A45BE"/>
<stop offset="1" stop-color="#6A45BE" stop-opacity="0"/>
</radialGradient>
</defs>
</svg>
