<svg width="13" height="13" viewBox="0 0 13 13" fill="none" xmlns="http://www.w3.org/2000/svg">
<path d="M7.79939 5.38102L8.01779 5.17667C8.12893 5.07268 8.14102 4.98066 8.05405 4.90059C7.96708 4.82052 7.86802 4.83351 7.75687 4.93958L7.54264 5.14002C7.29834 4.92439 6.97953 4.7978 6.64403 4.7832C6.38746 4.79632 6.14178 4.88456 5.94171 5.03542C5.74165 5.18629 5.59731 5.39216 5.52911 5.62395C5.49137 5.79749 5.50287 5.97724 5.56246 6.14533C5.63748 6.34676 5.73339 6.54084 5.8488 6.7248L4.90851 7.60416C4.84878 7.51056 4.81258 7.40549 4.80264 7.29688C4.7955 7.20708 4.80857 7.11688 4.84099 7.0321C4.88772 6.92088 4.94072 6.81204 4.99979 6.70608C5.03398 6.64714 5.04532 6.57894 5.03188 6.51306C5.01566 6.44265 4.97683 6.37858 4.9206 6.3294C4.88635 6.29562 4.84492 6.26893 4.79897 6.25107C4.75303 6.2332 4.70359 6.22454 4.65385 6.22566C4.60768 6.22462 4.56175 6.23228 4.51879 6.24815C4.47584 6.26403 4.43672 6.2878 4.40377 6.31808C4.31257 6.40528 4.24075 6.50853 4.19246 6.62186C4.137 6.75227 4.1072 6.89098 4.10451 7.03131C4.10051 7.19273 4.12878 7.35342 4.18788 7.50511C4.25843 7.68336 4.36058 7.8492 4.49005 7.99568L3.94447 8.50652C3.89336 8.54793 3.8558 8.60201 3.8361 8.66251C3.8323 8.68809 3.83559 8.71414 3.84566 8.73818C3.85574 8.76221 3.87225 8.78343 3.89362 8.79977C3.91145 8.82163 3.93618 8.83768 3.9643 8.84566C3.99243 8.85364 4.02253 8.85313 4.05033 8.84422C4.12486 8.80905 4.19171 8.76117 4.24747 8.70306L4.75096 8.23238C4.93807 8.38657 5.16096 8.49792 5.40199 8.55761C5.61455 8.60928 5.83811 8.60604 6.04886 8.54824C6.25295 8.49112 6.43851 8.3871 6.5886 8.24565C6.70608 8.13784 6.79833 8.00836 6.85952 7.86544C6.91699 7.72915 6.94175 7.58271 6.93204 7.43648C6.92561 7.29761 6.89095 7.16116 6.82992 7.03443C6.76879 6.90653 6.67752 6.74287 6.55609 6.54347L7.39718 5.75693C7.45362 5.85124 7.48206 5.95796 7.47957 6.06602C7.47708 6.17409 7.44374 6.27956 7.38301 6.37151C7.33101 6.43697 7.30653 6.51801 7.31421 6.59925C7.3219 6.68049 7.36121 6.75626 7.42469 6.81215C7.45738 6.84381 7.49666 6.86887 7.5401 6.88577C7.58354 6.90267 7.63022 6.91106 7.67727 6.91043C7.72365 6.91169 7.76982 6.90395 7.81286 6.88771C7.85589 6.87147 7.89487 6.84708 7.92735 6.81606C7.9948 6.74896 8.04623 6.6692 8.07822 6.58208C8.11949 6.47605 8.14365 6.36487 8.14991 6.25218C8.16422 6.10201 8.14111 5.95076 8.08239 5.81035C8.01173 5.65471 7.91632 5.50996 7.79939 5.38102ZM6.0226 7.84165C5.91713 7.94213 5.77456 8.00101 5.62414 8.00621C5.4522 8.00926 5.28395 7.95939 5.14525 7.86426L6.03051 7.03599C6.11483 7.17444 6.16788 7.3276 6.1864 7.486C6.18827 7.55303 6.17439 7.61963 6.14572 7.68108C6.11706 7.74254 6.07431 7.79735 6.02051 7.84165H6.0226ZM6.37437 6.23385C6.30712 6.1116 6.26552 5.97844 6.25183 5.84156C6.26241 5.72198 6.31889 5.61003 6.41082 5.52638C6.50276 5.44273 6.62394 5.39304 6.75198 5.38648C6.89241 5.40083 7.02803 5.44267 7.15002 5.5093L6.37437 6.23385Z" fill="white"/>
<path d="M12.9459 0.543711C12.9456 0.51821 12.9396 0.493052 12.9283 0.469844C12.917 0.446637 12.9007 0.425882 12.8803 0.408925C12.86 0.391968 12.836 0.379182 12.8101 0.371367C12.7841 0.363553 12.7567 0.360888 12.7296 0.363548C12.675 0.36617 12.6236 0.388536 12.5863 0.425931C12.549 0.463327 12.5286 0.512831 12.5296 0.56399C12.5296 0.588557 12.5242 1.17076 11.1483 1.33532C10.91 1.36391 10.6794 1.43386 10.4685 1.54161L9.79624 0.912224C9.74451 0.863804 9.68007 0.828977 9.6094 0.811247C9.53872 0.793518 9.4643 0.79351 9.39361 0.811224L6.0526 1.64924C5.94677 1.65238 5.84618 1.69309 5.77127 1.7631L0.133719 7.03767C0.0555826 7.1108 0.0116882 7.20997 0.0116882 7.31337C0.0116882 7.41677 0.0555826 7.51594 0.133719 7.58907L5.16858 12.2994C5.24674 12.3725 5.35274 12.4135 5.46326 12.4135C5.57378 12.4135 5.67977 12.3725 5.75793 12.2994L11.3971 7.0252C11.4718 6.9553 11.5153 6.8615 11.5188 6.76275L12.4141 3.63607C12.4331 3.56994 12.433 3.50032 12.4141 3.43419C12.3951 3.36806 12.3579 3.30777 12.3062 3.25937L10.782 1.8333C10.9159 1.77759 11.0576 1.74016 11.2029 1.72216C12.9897 1.50847 12.9484 0.582707 12.9459 0.543711ZM10.7115 6.56192L5.46326 11.4723L1.01899 7.31337L6.26725 2.40264L9.37819 1.62272L9.83333 2.04894C9.62355 2.30368 9.45954 2.58871 9.34777 2.89281C9.13134 2.89061 8.92157 2.96274 8.75817 3.09554C8.59476 3.22833 8.48908 3.41258 8.46113 3.61339C8.43318 3.8142 8.48489 4.01763 8.60649 4.18515C8.72809 4.35268 8.91113 4.47267 9.12094 4.5224C9.33075 4.57214 9.55277 4.54816 9.74495 4.45502C9.93714 4.36188 10.0862 4.20603 10.1638 4.017C10.2414 3.82796 10.2422 3.61886 10.1661 3.42929C10.09 3.23972 9.94225 3.08283 9.75081 2.98835C9.84083 2.75091 9.96839 2.52746 10.1293 2.32543L11.5464 3.65128L10.7115 6.56192ZM9.65078 3.39547C9.70902 3.45002 9.74867 3.5195 9.76471 3.59513C9.78076 3.67077 9.77248 3.74916 9.74092 3.82039C9.70936 3.89162 9.65594 3.9525 9.58741 3.99533C9.51888 4.03816 9.43831 4.06102 9.3559 4.06102C9.27348 4.06102 9.19292 4.03816 9.12439 3.99533C9.05586 3.9525 9.00243 3.89162 8.97087 3.82039C8.93931 3.74916 8.93103 3.67077 8.94708 3.59513C8.96312 3.5195 9.00278 3.45002 9.06102 3.39547C9.10481 3.35547 9.15765 3.32522 9.21564 3.30695C9.1862 3.42082 9.1638 3.53617 9.14854 3.65245C9.14331 3.70377 9.16002 3.75495 9.19501 3.79478C9.23001 3.83461 9.28043 3.85985 9.33526 3.86498C9.3422 3.86536 9.34916 3.86536 9.3561 3.86498C9.40801 3.86521 9.45814 3.84731 9.49669 3.81478C9.53523 3.78225 9.55941 3.73743 9.5645 3.6891C9.57865 3.58412 9.5991 3.47997 9.62577 3.37714C9.63244 3.38494 9.64286 3.38845 9.65078 3.39547Z" fill="white"/>
</svg>
