<svg width="9" height="8" viewBox="0 0 9 8" fill="none" xmlns="http://www.w3.org/2000/svg">
<path d="M8.56189 4.00005C8.56189 1.79072 6.77102 0 4.56195 0C2.35277 0 0.56189 1.79072 0.56189 4.00005C0.56189 6.20904 2.35277 7.9999 4.56195 7.9999C6.77102 7.9999 8.56189 6.20904 8.56189 4.00005Z" fill="#EC3138"/>
<path d="M2.79045 2.79828C2.79045 2.57392 2.86248 2.34657 3.00656 2.11629C3.15059 1.88601 3.36085 1.69529 3.63718 1.54412C3.91353 1.39299 4.23593 1.31738 4.60437 1.31738C4.94681 1.31738 5.24917 1.3806 5.51134 1.50692C5.77352 1.6333 5.976 1.80513 6.11894 2.0224C6.26181 2.23973 6.33327 2.47589 6.33327 2.73097C6.33327 2.93174 6.29253 3.10773 6.21104 3.25885C6.12955 3.41002 6.03268 3.54051 5.92052 3.65032C5.80831 3.76015 5.60697 3.94498 5.31647 4.20479C5.23616 4.27802 5.17176 4.3424 5.12339 4.39789C5.07495 4.4534 5.03891 4.50417 5.01532 4.55021C4.99169 4.59627 4.97335 4.64232 4.9604 4.68839C4.94739 4.73442 4.92792 4.81537 4.90196 4.93107C4.85707 5.17673 4.71651 5.29953 4.48036 5.29953C4.35753 5.29953 4.25418 5.2594 4.17037 5.17907C4.08651 5.09879 4.0446 4.97951 4.0446 4.82125C4.0446 4.62285 4.07527 4.45101 4.13672 4.30577C4.19812 4.16049 4.27959 4.03295 4.38117 3.92315C4.48269 3.81331 4.61971 3.68284 4.79214 3.53166C4.94326 3.39941 5.05254 3.29961 5.11985 3.23229C5.18717 3.16497 5.24385 3.09003 5.28991 3.00731C5.33596 2.92466 5.359 2.83493 5.359 2.73806C5.359 2.54912 5.2887 2.3897 5.1482 2.25978C5.00765 2.12991 4.82635 2.06492 4.60437 2.06492C4.34452 2.06492 4.15321 2.13046 4.03043 2.26155C3.9076 2.39264 3.80369 2.58572 3.71866 2.8408C3.63834 3.10773 3.48599 3.24114 3.26162 3.24114C3.12931 3.24114 3.01772 3.19453 2.92683 3.1012C2.8359 3.00791 2.79045 2.90694 2.79045 2.79828ZM4.51935 6.68124C4.37525 6.68124 4.24949 6.63456 4.14204 6.54128C4.03454 6.44802 3.98083 6.31753 3.98083 6.14981C3.98083 6.001 4.03275 5.87585 4.13672 5.77427C4.24062 5.67274 4.36816 5.62193 4.51934 5.62193C4.66814 5.62193 4.7933 5.67274 4.89488 5.77427C4.99639 5.87585 5.04722 6.001 5.04722 6.14981C5.04722 6.31516 4.99407 6.44507 4.88778 6.53953C4.78149 6.63398 4.65869 6.68124 4.51935 6.68124Z" fill="#E1E1E1"/>
</svg>
