<svg width="19" height="44" viewBox="0 0 19 44" fill="none" xmlns="http://www.w3.org/2000/svg">
<path d="M13.9691 9.97462C14.6495 9.97462 15.2757 10.1053 15.8479 10.3669C17.5463 11.2173 18.5491 12.8335 18.5619 14.6358V27.0501C18.2433 29.0236 15.9726 28.487 15.9176 27.0501V15.328C15.7152 14.6596 14.4177 14.9367 14.3866 15.328V42.2335C14.0567 44.9808 10.488 44.1744 10.397 42.1873C10.397 36.6955 10.397 31.2036 10.397 25.7118C10.1688 24.6491 8.66698 25.132 8.63406 25.7579C8.69775 31.2342 8.68047 36.7108 8.68047 42.1873C8.32456 44.9206 4.77318 44.2212 4.69077 42.2335L4.6444 15.328C4.43641 14.674 3.23407 14.9248 3.20621 15.328V27.0501C2.8876 29.0236 0.616883 28.487 0.56189 27.0501V14.6358C0.593994 12.9104 1.22966 11.1819 2.7423 10.3669C3.23717 10.1053 3.84025 9.97458 4.55159 9.97458C7.69074 9.97462 10.8299 9.97462 13.9691 9.97462ZM13.9223 4.33682C13.9223 6.732 11.9704 8.67368 9.56272 8.67368C7.15503 8.67368 5.20318 6.732 5.20318 4.33682C5.20314 1.94168 7.15499 0 9.56264 0C11.9704 0 13.9223 1.94168 13.9223 4.33682Z" fill="#EC3138"/>
</svg>
